<svg xmlns="http://www.w3.org/2000/svg" width="1020" height="190" viewBox="0 0 1020 190" role="img" aria-label="Scenario to ERD process">
<rect width="100%" height="100%" fill="#ffffff"/>
<style>
  .t { font-family: Arial, Helvetica, sans-serif; fill: #172b4d; }
  .muted { font-family: Arial, Helvetica, sans-serif; fill: #5f6b7a; }
  .entity { fill: #ffffff; stroke: #1f6feb; stroke-width: 2; rx: 8; }
  .head { fill: #eaf3ff; }
  .rel { stroke: #172b4d; stroke-width: 2.2; fill: none; stroke-linecap: round; }
  .sym { stroke: #172b4d; stroke-width: 2.2; fill: #ffffff; }
  .pk { font-weight: 700; text-decoration: underline; }
  .small { font-size: 14px; }
  .med { font-size: 16px; }
  .big { font-size: 20px; font-weight: 700; }
</style>
<rect x="60" y="55" width="170" height="78" rx="12" fill="#eaf3ff" stroke="#1f6feb" stroke-width="2"/>
<text class="t big" x="145" y="102" text-anchor="middle">Scenario</text>
<rect x="290" y="55" width="170" height="78" rx="12" fill="#eaf3ff" stroke="#1f6feb" stroke-width="2"/>
<text class="t big" x="375" y="102" text-anchor="middle">Business Rules</text>
<rect x="520" y="55" width="170" height="78" rx="12" fill="#eaf3ff" stroke="#1f6feb" stroke-width="2"/>
<text class="t" x="605" y="90" text-anchor="middle" font-size="16.5" font-weight="700">
  <tspan x="605" dy="0">Entities + Attributes</tspan>
  <tspan x="605" dy="24">+ Relationships</tspan>
</text>
<rect x="790" y="55" width="170" height="78" rx="12" fill="#eaf3ff" stroke="#1f6feb" stroke-width="2"/>
<text class="t big" x="875" y="102" text-anchor="middle">ERD</text>
<line x1="235" y1="94" x2="277" y2="94" stroke="#172b4d" stroke-width="2.5"/>
<path d="M 277 94 l -10 -7 m 10 7 l -10 7" stroke="#172b4d" stroke-width="2.5" fill="none"/>
<line x1="465" y1="94" x2="507" y2="94" stroke="#172b4d" stroke-width="2.5"/>
<path d="M 507 94 l -10 -7 m 10 7 l -10 7" stroke="#172b4d" stroke-width="2.5" fill="none"/>
<line x1="735" y1="94" x2="777" y2="94" stroke="#172b4d" stroke-width="2.5"/>
<path d="M 777 94 l -10 -7 m 10 7 l -10 7" stroke="#172b4d" stroke-width="2.5" fill="none"/>
</svg>